<svg width="16" height="16" viewBox="0 0 16 16" fill="none" xmlns="http://www.w3.org/2000/svg">
<path d="M16 8.18399C16 7.64019 15.955 7.09345 15.8591 6.55847H8.16119V9.63902H12.5694C12.3865 10.6326 11.7987 11.5115 10.9381 12.0699V14.0688H13.568C15.1124 12.6755 16 10.6179 16 8.18399Z" fill="#4285F4"/>
<path d="M8.1612 16C10.3623 16 12.2185 15.2916 13.571 14.0688L10.9411 12.0699C10.2094 12.5579 9.26475 12.8342 8.16419 12.8342C6.03506 12.8342 4.2298 11.4262 3.58206 9.53317H0.868164V11.5937C2.2536 14.2951 5.07545 16 8.1612 16Z" fill="#34A853"/>
<path d="M3.57904 9.5332C3.23718 8.53966 3.23718 7.46382 3.57904 6.47029V4.40973H0.868147C-0.289382 6.67017 -0.289382 9.33331 0.868147 11.5938L3.57904 9.5332Z" fill="#FBBC04"/>
<path d="M8.1612 3.16633C9.32472 3.14869 10.4493 3.57785 11.2919 4.36563L13.622 2.08167C12.1466 0.723645 10.1884 -0.0229765 8.1612 0.000539092C5.07545 0.000539092 2.2536 1.70542 0.868164 4.40972L3.57906 6.47028C4.2238 4.57433 6.03206 3.16633 8.1612 3.16633Z" fill="#EA4335"/>
</svg>
