<svg width="116" height="58" viewBox="0 0 116 58" fill="none" xmlns="http://www.w3.org/2000/svg">
<path d="M72.9266 11.4916L66.7149 5.27994L56.2914 15.7034L45.8604 5.27994L39.6487 11.4916L50.0798 21.9151L39.6487 32.3386L45.8604 38.5503L56.2914 28.1268L66.7149 38.5503L72.9266 32.3386L62.5031 21.9151L72.9266 11.4916Z" fill="#8F75FF"/>
<path d="M114.431 37.1186H72.8282L93.6373 6.00714L114.431 37.1186ZM89.274 28.7858H98.0082L93.6373 22.256L89.274 28.7858Z" fill="#3C0080"/>
<path d="M18.3396 39.3306C14.8622 39.3306 11.4629 38.2994 8.57152 36.3675C5.68016 34.4355 3.42662 31.6896 2.09587 28.4769C0.765125 25.2641 0.416941 21.729 1.09535 18.3184C1.77376 14.9078 3.44829 11.775 5.90719 9.31606C8.36609 6.85716 11.4989 5.18263 14.9095 4.50422C18.3201 3.82582 21.8553 4.174 25.068 5.50475C28.2807 6.83549 31.0266 9.08903 32.9586 11.9804C34.8905 14.8718 35.9217 18.2711 35.9217 21.7485C35.9177 26.4103 34.064 30.8801 30.7676 34.1765C27.4712 37.4729 23.0014 39.3266 18.3396 39.3306ZM18.3396 12.9461C16.5983 12.9446 14.8957 13.4596 13.4472 14.4259C11.9986 15.3922 10.8692 16.7664 10.2018 18.3747C9.53444 19.983 9.35905 21.7531 9.69783 23.4611C10.0366 25.1691 10.8744 26.7382 12.1051 27.97C13.3358 29.2018 14.9043 30.0409 16.612 30.3812C18.3197 30.7214 20.0899 30.5476 21.6988 29.8816C23.3077 29.2156 24.6829 28.0873 25.6504 26.6396C26.618 25.1919 27.1344 23.4897 27.1344 21.7485C27.1324 19.4159 26.2054 17.1792 24.5567 15.5291C22.908 13.879 20.6722 12.9501 18.3396 12.9461Z" fill="#3C0080"/>
<path d="M23.1575 0H14.0672V20.4531H23.1575V0Z" fill="#72EA24"/>
<path d="M6.37531 43.2983C7.63709 43.2983 8.73284 43.5108 9.66257 43.9358C10.5923 44.3476 11.3095 44.9453 11.8142 45.7289C12.319 46.4992 12.5713 47.4091 12.5713 48.4583C12.5713 49.5076 12.319 50.4174 11.8142 51.1878C11.3095 51.9581 10.5923 52.5558 9.66257 52.9808C8.73284 53.3925 7.63709 53.5984 6.37531 53.5984H3.94472V57.2443H0V43.2983H6.37531ZM6.13623 50.4905C6.94643 50.4905 7.55739 50.3178 7.96913 49.9725C8.38087 49.6138 8.58674 49.1091 8.58674 48.4583C8.58674 47.8075 8.38087 47.3028 7.96913 46.9442C7.55739 46.5856 6.94643 46.4063 6.13623 46.4063H3.94472V50.4905H6.13623Z" fill="#72EA24"/>
<path d="M14.4946 43.2983H18.4394V54.1164H25.0936V57.2443H14.4946V43.2983Z" fill="#72EA24"/>
<path d="M36.154 54.5348H30.2569L29.1611 57.2443H25.1367L31.2929 43.2983H35.1778L41.3539 57.2443H37.2498L36.154 54.5348ZM34.9985 51.6261L33.2054 47.1633L31.4124 51.6261H34.9985Z" fill="#72EA24"/>
<path d="M49.0677 52.2437V57.2443H45.123V52.1839L39.8036 43.2983H43.9675L47.2747 48.8369L50.5819 43.2983H54.4071L49.0677 52.2437Z" fill="#72EA24"/>
<path d="M66.7552 50.2713H68.1697V55.5907C67.5189 56.1618 66.7485 56.6001 65.8586 56.9056C64.9688 57.2111 64.0324 57.3638 63.0495 57.3638C61.6549 57.3638 60.3998 57.0583 59.2841 56.4474C58.1684 55.8364 57.2918 54.993 56.6543 53.9172C56.0168 52.8281 55.698 51.6128 55.698 50.2713C55.698 48.9298 56.0168 47.7212 56.6543 46.6453C57.2918 45.5562 58.1684 44.7062 59.2841 44.0952C60.3998 43.4843 61.6616 43.1788 63.0694 43.1788C64.132 43.1788 65.1082 43.3514 65.9981 43.6968C66.888 44.0288 67.6384 44.5269 68.2494 45.191L67.3329 46.1274C66.2305 45.0382 64.8293 44.4937 63.1292 44.4937C62.0003 44.4937 60.9775 44.746 60.0611 45.2507C59.1579 45.7422 58.4473 46.4328 57.9294 47.3227C57.4114 48.1993 57.1524 49.1822 57.1524 50.2713C57.1524 51.3604 57.4114 52.3433 57.9294 53.2199C58.4473 54.0965 59.1579 54.7871 60.0611 55.2919C60.9643 55.7966 61.9803 56.0489 63.1093 56.0489C64.5437 56.0489 65.759 55.6903 66.7552 54.9731V50.2713Z" fill="#3C0080"/>
<path d="M81.0884 53.5187H73.3185L71.645 57.2443H70.1109L76.4862 43.2983H77.9406L84.3159 57.2443H82.7619L81.0884 53.5187ZM80.5505 52.3234L77.2034 44.8324L73.8564 52.3234H80.5505Z" fill="#3C0080"/>
<path d="M101.107 43.2983V57.2443H99.6923V46.0875L94.2135 55.4712H93.5162L88.0374 46.1473V57.2443H86.6229V43.2983H87.8382L93.8947 53.6383L99.8915 43.2983H101.107Z" fill="#3C0080"/>
<path d="M115.513 55.9692V57.2443H105.651V43.2983H115.214V44.5734H107.125V49.5342H114.337V50.7893H107.125V55.9692H115.513Z" fill="#3C0080"/>
</svg>
